<svg width="180" height="217" viewBox="0 0 180 217" fill="none" xmlns="http://www.w3.org/2000/svg">
<g filter="url(#filter0_d_10_2)">
<path d="M74.5 192L71.6716 194.828L78.5 201.657V192H74.5ZM90 15L92.8284 12.1716L86 5.34315V15H90ZM160.5 85.5L163.328 88.3284L166.157 85.5L163.328 82.6716L160.5 85.5ZM128.825 142.325L125.997 145.154L128.845 148.001L131.673 145.134L128.825 142.325ZM157 113.76H161V104.009L154.152 110.951L157 113.76ZM7.17157 130.328L71.6716 194.828L77.3284 189.172L12.8284 124.672L7.17157 130.328ZM78.5 192V15H70.5V192H78.5ZM87.1716 17.8284L157.672 88.3284L163.328 82.6716L92.8284 12.1716L87.1716 17.8284ZM86 15V103.5H94V15H86ZM86 103.5V156H94V103.5H86ZM86 156V192H94V156H86ZM87.1716 106.328L125.997 145.154L131.654 139.497L92.8284 100.672L87.1716 106.328ZM131.673 145.134L159.848 116.569L154.152 110.951L125.977 139.516L131.673 145.134ZM153 113.76V183H161V113.76H153ZM157.672 82.6716L119.695 120.648L125.352 126.305L163.328 88.3284L157.672 82.6716ZM107.281 133.062L87.1716 153.172L92.8284 158.828L112.938 138.719L107.281 133.062Z" fill="black"/>
</g>
<defs>
<filter id="filter0_d_10_2" x="0.17157" y="0.343147" width="178.985" height="216.314" filterUnits="userSpaceOnUse" color-interpolation-filters="sRGB">
<feFlood flood-opacity="0" result="BackgroundImageFix"/>
<feColorMatrix in="SourceAlpha" type="matrix" values="0 0 0 0 0 0 0 0 0 0 0 0 0 0 0 0 0 0 127 0" result="hardAlpha"/>
<feOffset dx="3" dy="5"/>
<feGaussianBlur stdDeviation="5"/>
<feComposite in2="hardAlpha" operator="out"/>
<feColorMatrix type="matrix" values="0 0 0 0 0 0 0 0 0 0 0 0 0 0 0 0 0 0 0.55 0"/>
<feBlend mode="normal" in2="BackgroundImageFix" result="effect1_dropShadow_10_2"/>
<feBlend mode="normal" in="SourceGraphic" in2="effect1_dropShadow_10_2" result="shape"/>
</filter>
</defs>
</svg>
